<svg xmlns="http://www.w3.org/2000/svg" version="1.1" xmlns:xlink="http://www.w3.org/1999/xlink" xmlns:svgjs="http://svgjs.dev/svgjs" width="1500" height="268" viewBox="0 0 1500 268"><g transform="matrix(1,0,0,1,-0.9090909090909918,-1.8814966621645794)"><svg viewBox="0 0 396 71" data-background-color="#ede1d1" preserveAspectRatio="xMidYMid meet" height="268" width="1500" xmlns="http://www.w3.org/2000/svg" xmlns:xlink="http://www.w3.org/1999/xlink"><g id="tight-bounds" transform="matrix(1,0,0,1,0.2400000000000091,0.49845620527494816)"><svg viewBox="0 0 395.52 70.00308758945012" height="70.00308758945012" width="395.52"><g><svg viewBox="0 0 524.3587692576165 92.80626226900584" height="70.00308758945012" width="395.52"><g><rect width="6.055980106716069" height="67.4893585964912" x="411.37335106470175" y="12.65845183625732" fill="#6a704c" opacity="1" stroke-width="0" stroke="transparent" fill-opacity="1" class="rect-yte-0" data-fill-palette-color="primary" rx="1%" id="yte-0" data-palette-color="#6a704c"></rect></g><g transform="matrix(1,0,0,1,0,12.826335812865501)"><svg viewBox="0 0 395.52 67.15359064327484" height="67.15359064327484" width="395.52"><g id="textblocktransform"><svg viewBox="0 0 395.52 67.15359064327484" height="67.15359064327484" width="395.52" id="textblock"><g><svg viewBox="0 0 395.52 67.15359064327484" height="67.15359064327484" width="395.52"><g transform="matrix(1,0,0,1,0,0)"><svg width="395.52" viewBox="4.1 -33.4 256.67999999999995 43.55" height="67.15359064327484" data-palette-color="#6a704c"><g class="wordmark-text-0" data-fill-palette-color="primary" id="text-0"><path d="M18.65-15.9Q21.7-15.05 23.1-12.95 24.5-10.85 24.5-8.2L24.5-8.2Q24.5-4.65 22.3-2.33 20.1 0 14.8 0L14.8 0 4.1 0 4.1-30.65 13.35-30.65Q18.55-30.65 20.83-28.5 23.1-26.35 23.1-22.8L23.1-22.8Q23.1-20.5 22.08-18.68 21.05-16.85 18.65-15.9L18.65-15.9ZM9.2-28.75L9.2-16.65 13-16.65Q15.7-16.65 16.85-18.32 18-20 18-22.75L18-22.75Q18-25.7 16.75-27.23 15.5-28.75 13-28.75L13-28.75 9.2-28.75ZM14.3-1.9Q19.4-1.9 19.4-8.2L19.4-8.2Q19.4-10.95 18.1-12.85 16.8-14.75 14.3-14.75L14.3-14.75 9.2-14.75 9.2-1.9 14.3-1.9ZM32.75-27.15Q31.45-27.15 30.55-28.08 29.65-29 29.65-30.25L29.65-30.25Q29.65-31.55 30.55-32.48 31.45-33.4 32.75-33.4L32.75-33.4Q34.05-33.4 34.97-32.48 35.9-31.55 35.9-30.25L35.9-30.25Q35.9-29 34.95-28.08 34-27.15 32.75-27.15L32.75-27.15ZM35.15-24L35.15 0 30.2 0 30.2-24 35.15-24ZM57.09-31.7L62.15-32.35 62.15 0 59.09 0 57.65-2.7Q54.9 0.6 50.65 0.6L50.65 0.6Q41.59 0.6 41.59-11.8L41.59-11.8Q41.59-24.6 51.25-24.6L51.25-24.6Q54.3-24.6 57.09-22.8L57.09-22.8 57.09-31.7ZM52.05-1.9Q55.05-1.9 57.09-4.7L57.09-4.7 57.09-20.25Q54.95-21.85 52.45-21.85L52.45-21.85Q49.59-21.85 48.12-19.3 46.65-16.75 46.65-11.8L46.65-11.8Q46.65-6.9 48.02-4.4 49.4-1.9 52.05-1.9L52.05-1.9ZM85.84-24L88.74-24 76.49 10.15 72.39 9.55 77.04 0.95 66.64-24 71.69-24 79.34-5.05 85.84-24ZM107.84-24L112.89-24 112.89 0 109.59 0 108.19-3Q104.84 0.6 100.34 0.6L100.34 0.6Q96.44 0.6 94.59-1.43 92.74-3.45 92.74-7.15L92.74-7.15 92.74-24 97.79-24 97.79-7.65Q97.79-2.05 102.19-2.05L102.19-2.05Q105.44-2.05 107.84-5.2L107.84-5.2 107.84-24ZM131.64-3.15L132.29-0.85Q129.64 0.6 127.19 0.6L127.19 0.6Q124.69 0.6 123.46-0.33 122.24-1.25 121.94-2.55 121.64-3.85 121.64-5.75L121.64-5.75 121.64-21.45 117.74-21.45 117.74-24 121.64-24 121.64-27.9 126.74-29.8 126.74-24 131.84-24 131.84-21.45 126.74-21.45 126.74-5.15Q126.74-3.5 127.16-2.88 127.59-2.25 128.59-2.25L128.59-2.25Q129.99-2.25 131.64-3.15L131.64-3.15Z" fill="#6a704c" data-fill-palette-color="primary"></path><path d="M169.54-15.6L169.54 0 166.99 0 165.94-3.75Q163.39 0.6 158.34 0.6L158.34 0.6Q153.74 0.6 151.16-1.28 148.59-3.15 147.59-6.6 146.59-10.05 146.59-15.3L146.59-15.3Q146.59-20.65 147.66-24.13 148.74-27.6 151.41-29.43 154.09-31.25 158.84-31.25L158.84-31.25Q163.89-31.25 166.09-29.18 168.29-27.1 168.79-23.05L168.79-23.05 164.69-22.3Q164.09-29.15 158.84-29.15L158.84-29.15Q155.99-29.15 154.44-27.65 152.89-26.15 152.29-23.2 151.69-20.25 151.69-15.3L151.69-15.3Q151.69-10.5 152.24-7.55 152.79-4.6 154.21-3.08 155.64-1.55 158.34-1.55L158.34-1.55Q164.89-1.55 165.14-10.55L165.14-10.55 165.14-13.1 159.54-13.1 159.54-15.6 169.54-15.6ZM186.29 0.6Q180.24 0.6 177.86-2.88 175.49-6.35 175.49-12L175.49-12Q175.49-17.7 177.86-21.15 180.24-24.6 186.29-24.6L186.29-24.6Q192.29-24.6 194.69-21.13 197.09-17.65 197.09-12L197.09-12Q197.09 0.6 186.29 0.6L186.29 0.6ZM186.29-1.9Q189.59-1.9 190.81-4.55 192.04-7.2 192.04-12L192.04-12Q192.04-16.85 190.84-19.48 189.63-22.1 186.29-22.1L186.29-22.1Q182.94-22.1 181.74-19.5 180.54-16.9 180.54-12L180.54-12Q180.54-7.15 181.74-4.53 182.94-1.9 186.29-1.9L186.29-1.9ZM222.98-24L222.98-21.9 219.48-21.9Q221.48-19.55 221.48-15.8L221.48-15.8Q221.48-12.1 219.46-9.5 217.43-6.9 212.53-6.9L212.53-6.9Q209.18-6.9 206.98-8L206.98-8 205.63-6.7Q204.43-5.7 204.43-4.35L204.43-4.35Q204.43-3.6 205.01-2.98 205.58-2.35 206.63-2.35L206.63-2.35 215.98-2.35Q219.18-2.35 221.03-0.7 222.88 0.95 222.88 3.45L222.88 3.45Q222.88 7.25 219.76 8.7 216.63 10.15 211.53 10.15L211.53 10.15Q206.63 10.15 203.91 8.8 201.18 7.45 201.18 4.2L201.18 4.2Q201.18 2.9 202.06 1.65 202.93 0.4 204.33-0.3L204.33-0.3Q203.03-0.75 202.26-1.73 201.48-2.7 201.48-3.95L201.48-3.95Q201.48-5.05 201.88-6.03 202.28-7 203.33-8L203.33-8 204.88-9.5Q202.68-11.7 202.68-15.8L202.68-15.8Q202.68-19.5 204.81-22.05 206.93-24.6 212.08-24.6L212.08-24.6Q214.53-24.6 216.18-24L216.18-24 222.98-24ZM212.08-9.35Q214.58-9.35 215.61-11 216.63-12.65 216.63-15.8L216.63-15.8Q216.63-18.9 215.61-20.53 214.58-22.15 212.08-22.15L212.08-22.15Q209.58-22.15 208.58-20.53 207.58-18.9 207.58-15.8L207.58-15.8Q207.58-12.65 208.58-11 209.58-9.35 212.08-9.35L212.08-9.35ZM207.43 0Q206.58 0.7 206.06 1.78 205.53 2.85 205.53 4.05L205.53 4.05Q205.53 6 207.06 6.83 208.58 7.65 211.53 7.65L211.53 7.65Q215.33 7.65 216.96 6.73 218.58 5.8 218.58 3.45L218.58 3.45Q218.58 1.8 217.38 0.9 216.18 0 214.38 0L214.38 0 207.43 0ZM237.98 0.6Q231.93 0.6 229.56-2.88 227.18-6.35 227.18-12L227.18-12Q227.18-17.7 229.56-21.15 231.93-24.6 237.98-24.6L237.98-24.6Q243.98-24.6 246.38-21.13 248.78-17.65 248.78-12L248.78-12Q248.78 0.6 237.98 0.6L237.98 0.6ZM237.98-1.9Q241.28-1.9 242.51-4.55 243.73-7.2 243.73-12L243.73-12Q243.73-16.85 242.53-19.48 241.33-22.1 237.98-22.1L237.98-22.1Q234.63-22.1 233.43-19.5 232.23-16.9 232.23-12L232.23-12Q232.23-7.15 233.43-4.53 234.63-1.9 237.98-1.9L237.98-1.9ZM257.63-27.15Q256.33-27.15 255.43-28.08 254.53-29 254.53-30.25L254.53-30.25Q254.53-31.55 255.43-32.48 256.33-33.4 257.63-33.4L257.63-33.4Q258.93-33.4 259.85-32.48 260.78-31.55 260.78-30.25L260.78-30.25Q260.78-29 259.83-28.08 258.88-27.15 257.63-27.15L257.63-27.15ZM260.03-24L260.03 0 255.08 0 255.08-24 260.03-24Z" fill="#412e27" data-fill-palette-color="accent"></path></g></svg></g></svg></g></svg></g></svg></g><g transform="matrix(1,0,0,1,433.28268223611957,0)"><svg viewBox="0 0 91.07608702149689 92.80626226900584" height="92.80626226900584" width="91.07608702149689"><g><svg xmlns="http://www.w3.org/2000/svg" xmlns:xlink="http://www.w3.org/1999/xlink" xml:space="preserve" version="1.1" style="shape-rendering:geometricPrecision;text-rendering:geometricPrecision;image-rendering:optimizeQuality;" viewBox="13.32 5.13 862.2399999999999 878.62" x="0" y="0" fill-rule="evenodd" clip-rule="evenodd" height="92.80626226900584" width="91.07608702149689" class="icon-icon-0" data-fill-palette-color="accent" id="icon-0"><g fill="#412e27" data-fill-palette-color="accent"><path class="" d="M13.32 25.96C13.32 14.46 22.65 5.13 34.15 5.13S54.98 14.46 54.98 25.96V842.09H854.73C866.23 842.09 875.56 851.42 875.56 862.92S866.23 883.75 854.73 883.75H34.15C22.65 883.75 13.32 874.42 13.32 862.92zM549.9 589.87C553.72 600.7 548.03 612.58 537.21 616.4 526.38 620.22 514.5 614.53 510.68 603.71 492.62 553.08 463.85 507.46 427.12 469.63 390.31 431.71 345.47 401.59 295.39 382.02 284.7 377.84 279.41 365.78 283.59 355.09S299.83 339.11 310.52 343.29C366.15 365.03 415.98 398.51 456.9 440.66 497.78 482.76 529.8 533.53 549.89 589.87zM691.86 478.08C687.59 467.43 692.77 455.33 703.42 451.06S726.17 451.97 730.44 462.62A544.5 544.5 0 0 1 760.2 563.11 549.4 549.4 0 0 1 770.24 667.73C770.24 684.99 763.24 700.62 751.93 711.93L750.53 713.21C739.31 723.77 724.25 730.24 707.73 730.24 690.53 730.24 674.9 723.21 663.54 711.85 652.24 700.54 645.23 684.94 645.23 667.74 645.23 550.83 597.66 444.8 520.88 368.02 444.09 291.23 338.07 243.67 221.15 243.67 203.98 243.67 188.39 236.67 177.04 225.36L176.92 225.23C165.63 213.89 158.65 198.3 158.65 181.16 158.65 163.9 165.64 148.27 176.95 136.96 188.25 125.66 203.88 118.66 221.14 118.66 293.88 118.66 363.43 132.91 427.1 158.77 493.16 185.59 552.9 224.97 603.34 273.94 611.56 281.94 611.75 295.09 603.75 303.32 595.75 311.54 582.6 311.73 574.37 303.73 527.82 258.55 472.6 222.17 411.47 197.35 352.71 173.49 288.44 160.33 221.13 160.33A20.79 20.79 0 0 0 200.3 181.16C200.3 186.97 202.6 192.18 206.32 195.9L206.4 195.98C210.11 199.7 215.32 202 221.13 202 349.55 202 465.99 254.23 550.32 338.56S686.89 539.33 686.89 667.74C686.89 673.55 689.22 678.79 692.98 682.55 696.7 686.27 701.91 688.57 707.71 688.57 713.14 688.57 718.05 686.56 721.69 683.27L722.45 682.47A20.8 20.8 0 0 0 728.54 667.73C728.54 634.51 725.37 602.14 719.32 570.92A503.5 503.5 0 0 0 691.84 478.08z" fill="#412e27" fill-rule="nonzero" data-fill-palette-color="accent"></path></g></svg></g></svg></g></svg></g><defs></defs></svg><rect width="395.52" height="70.00308758945012" fill="none" stroke="none" visibility="hidden"></rect></g></svg></g></svg>